<svg xmlns="http://www.w3.org/2000/svg" xmlns:xlink="http://www.w3.org/1999/xlink" width="500" zoomAndPan="magnify" viewBox="0 0 375 374.999991" height="500" preserveAspectRatio="xMidYMid meet" version="1.0"><defs><g/><clipPath id="c07c75baf8"><path d="M 226 240 L 273 240 L 273 285.9375 L 226 285.9375 Z M 226 240 " clip-rule="nonzero"/></clipPath><clipPath id="669c9d4a5e"><path d="M 59 88.6875 L 115 88.6875 L 115 144 L 59 144 Z M 59 88.6875 " clip-rule="nonzero"/></clipPath><clipPath id="ac5e84bc24"><path d="M 128 88.6875 L 159 88.6875 L 159 119 L 128 119 Z M 128 88.6875 " clip-rule="nonzero"/></clipPath></defs><path fill="#ff2e9f" d="M 254.429688 140.214844 C 236.980469 122.765625 208.6875 122.765625 191.234375 140.214844 L 187.136719 144.3125 L 183.039062 140.214844 C 165.585938 122.765625 137.292969 122.765625 119.839844 140.214844 C 102.390625 157.667969 102.390625 185.960938 119.839844 203.414062 L 123.941406 207.511719 L 187.136719 270.707031 L 254.429688 203.414062 C 271.882812 185.960938 271.882812 157.667969 254.429688 140.214844 " fill-opacity="1" fill-rule="nonzero"/><g clip-path="url(#c07c75baf8)"><path fill="#ff2e9f" d="M 272.453125 263.550781 C 259.886719 263.550781 249.699219 253.363281 249.699219 240.800781 C 249.699219 253.363281 239.515625 263.550781 226.949219 263.550781 C 239.515625 263.550781 249.699219 273.738281 249.699219 286.300781 C 249.699219 273.738281 259.886719 263.550781 272.453125 263.550781 " fill-opacity="1" fill-rule="nonzero"/></g><g clip-path="url(#669c9d4a5e)"><path fill="#ff2e9f" d="M 114.800781 116.09375 C 99.667969 116.09375 87.394531 103.824219 87.394531 88.6875 C 87.394531 103.824219 75.128906 116.09375 59.992188 116.09375 C 75.128906 116.09375 87.394531 128.363281 87.394531 143.496094 C 87.394531 128.363281 99.667969 116.09375 114.800781 116.09375 " fill-opacity="1" fill-rule="nonzero"/></g><path fill="#ff2e9f" d="M 327.179688 232.027344 C 311.53125 232.027344 298.847656 219.34375 298.847656 203.695312 C 298.847656 219.34375 286.160156 232.027344 270.515625 232.027344 C 286.160156 232.027344 298.847656 244.714844 298.847656 260.359375 C 298.847656 244.714844 311.53125 232.027344 327.179688 232.027344 " fill-opacity="1" fill-rule="nonzero"/><path fill="#ff2e9f" d="M 79.125 173.164062 C 66.558594 173.164062 56.371094 162.980469 56.371094 150.414062 C 56.371094 162.980469 46.183594 173.164062 33.621094 173.164062 C 46.183594 173.164062 56.371094 183.351562 56.371094 195.914062 C 56.371094 183.351562 66.558594 173.164062 79.125 173.164062 " fill-opacity="1" fill-rule="nonzero"/><g clip-path="url(#ac5e84bc24)"><path fill="#ff2e9f" d="M 158.171875 103.554688 C 149.960938 103.554688 143.304688 96.898438 143.304688 88.6875 C 143.304688 96.898438 136.648438 103.554688 128.4375 103.554688 C 136.648438 103.554688 143.304688 110.210938 143.304688 118.421875 C 143.304688 110.210938 149.960938 103.554688 158.171875 103.554688 " fill-opacity="1" fill-rule="nonzero"/></g><path fill="#ff2e9f" d="M 157.417969 240.992188 C 105.261719 252.910156 64.753906 252.675781 60.378906 238.75 C 56.839844 227.492188 77.808594 210.054688 112.195312 193.1875 C 111.402344 191.734375 110.691406 190.25 110.070312 188.738281 C 59.550781 210.761719 27.191406 234.023438 31.527344 247.820312 C 36.65625 264.136719 91.472656 261.949219 160.695312 244.269531 L 157.417969 240.992188 " fill-opacity="1" fill-rule="nonzero"/><path fill="#ff2e9f" d="M 342.742188 150.015625 C 338.769531 137.375 304.992188 135.839844 257.804688 144.003906 C 259.15625 145.695312 260.367188 147.464844 261.4375 149.292969 C 290.726562 146.398438 310.878906 149.492188 313.894531 159.082031 C 317.96875 172.046875 289.574219 193.191406 245.609375 212.234375 L 238.121094 219.71875 C 303.199219 194.910156 347.785156 166.0625 342.742188 150.015625 " fill-opacity="1" fill-rule="nonzero"/><path stroke-linecap="butt" transform="matrix(1.118509, -0.0757399, 0.0757399, 1.118509, 42.110203, 155.654287)" fill="none" stroke-linejoin="miter" d="M 57.355962 40.000247 L 84.907245 40.000957 C 89.122602 40.000026 92.213824 36.898579 92.212893 32.683222 L 92.21155 27.7519 C 92.212926 25.101282 90.283065 23.17203 87.646117 23.175072 L 87.237492 23.175341 C 86.605432 23.174449 86.111565 22.680014 86.111986 22.054907 C 86.109401 21.422613 86.603836 20.928745 87.239607 20.926396 L 87.644521 20.929368 C 90.284945 20.926561 92.213962 19.000177 92.211862 16.349324 L 92.213995 11.418238 C 92.213064 7.20288 89.122752 4.101935 84.907395 4.102866 L 57.356113 4.102156 C 56.720577 4.101029 56.226142 4.594897 56.225015 5.230432 L 56.226745 38.883055 C 56.226324 39.508161 56.720427 39.999121 57.355962 40.000247 Z M 70.818825 16.89833 C 70.18329 16.897203 69.689422 16.402767 69.690549 15.767232 C 69.690734 15.145602 70.181693 14.651499 70.817229 14.652626 L 77.543676 14.650607 C 78.168782 14.651028 78.66265 15.145463 78.662464 15.767093 C 78.661338 16.402629 78.170378 16.896732 77.545272 16.896311 Z M 70.817546 29.449832 C 70.181775 29.452181 69.691384 28.957981 69.688328 28.332639 C 69.688749 27.707533 70.182949 27.217142 70.81872 27.214792 L 77.544931 27.21625 C 78.170038 27.21667 78.660664 27.707394 78.660244 28.3325 C 78.663299 28.957842 78.168864 29.45171 77.543758 29.451289 Z M 95.618427 39.999852 L 129.270814 40.001599 C 129.896156 39.998544 130.390356 39.508152 130.3873 38.882811 L 130.389024 30.347568 C 130.389209 29.725938 129.853389 29.232154 129.228282 29.231733 L 109.038983 29.230131 C 108.403212 29.232481 107.909344 28.738045 107.909765 28.112939 C 107.910892 27.477404 108.401616 26.986777 109.037387 26.984427 L 127.473513 26.986054 C 128.098619 26.986475 128.593055 26.492607 128.593476 25.867501 L 128.593563 18.233179 C 128.593984 17.608073 128.054687 17.114054 127.432822 17.117345 L 109.038648 17.115067 C 108.402877 17.117416 107.909009 16.622981 107.90943 15.997875 C 107.910557 15.362339 108.40128 14.871713 109.037051 14.869363 L 129.27178 14.870549 C 129.896886 14.87097 130.387845 14.376867 130.388266 13.75176 L 130.389047 5.230423 C 130.390174 4.594888 129.896307 4.100452 129.270965 4.103508 L 95.576625 4.102413 C 94.941089 4.101286 94.446654 4.595153 94.445527 5.230689 L 94.447257 38.883312 C 94.446836 39.508418 94.993321 39.999432 95.618427 39.999852 Z M 133.751558 40.001177 L 159.371662 40.000335 C 164.666181 39.999139 168.520974 36.142659 168.52025 30.841188 L 168.52108 25.826196 C 168.52059 20.521249 164.66411 16.666455 159.373068 16.667886 L 147.21281 16.665161 C 146.577039 16.667511 146.086648 16.173311 146.087069 15.548204 C 146.084719 14.912433 146.578919 14.422042 147.21469 14.419693 L 167.40399 14.421295 C 168.029096 14.421715 168.520055 13.927613 168.520476 13.302506 L 168.518701 5.231512 C 168.519828 4.595977 168.025961 4.101541 167.404331 4.101356 L 141.780749 4.101962 C 136.489708 4.103394 132.621008 7.958932 132.621733 13.260403 L 132.623438 18.289536 C 132.621392 23.580342 136.488302 27.435842 141.779344 27.434411 L 153.939837 27.43366 C 154.564943 27.43408 155.058811 27.928516 155.057684 28.564051 C 155.057263 29.189158 154.563063 29.679549 153.941433 29.679363 L 133.751898 29.681238 C 133.116363 29.680111 132.621927 30.173978 132.621507 30.799085 L 132.62234 38.883984 C 132.622154 39.505614 133.116022 40.00005 133.751558 40.001177 Z M 178.69504 39.999179 L 189.866995 40.001336 C 190.502766 39.998987 190.99655 39.463166 190.996971 38.83806 L 190.995992 17.345931 C 190.997119 16.710395 191.533507 16.215876 192.158614 16.216297 L 196.649786 16.21658 C 197.274892 16.217001 197.765851 15.722898 197.766037 15.101268 L 197.767298 5.231908 C 197.7656 4.638089 197.274557 4.101937 196.649451 4.101516 L 171.880946 4.058745 C 171.24541 4.057618 170.754451 4.551721 170.753324 5.187257 L 170.752715 15.09857 C 170.752294 15.723676 171.246162 16.218112 171.881697 16.219239 L 176.36244 16.218816 C 176.998211 16.216467 177.534031 16.710251 177.532905 17.345786 L 177.534299 38.883344 C 177.533878 39.508451 178.069934 39.998758 178.69504 39.999179 Z M 178.69504 39.999179 " stroke="#ff2e9f" stroke-width="7.797049" stroke-opacity="1" stroke-miterlimit="4"/><path stroke-linecap="butt" transform="matrix(1.118509, -0.0757399, 0.0757399, 1.118509, 42.110203, 155.654287)" fill="none" stroke-linejoin="miter" d="M 45.107828 83.998963 L 56.279783 84.00112 C 56.915554 83.998771 57.409338 83.462951 57.409759 82.837844 L 57.40878 61.345715 C 57.409907 60.710179 57.94606 60.219137 58.567925 60.215846 L 63.062574 60.216365 C 63.684204 60.21655 64.178404 59.726159 64.178825 59.101052 L 64.17661 49.231456 C 64.178388 48.637874 63.683869 48.101485 63.062239 48.1013 L 38.293734 48.058529 C 37.658198 48.057403 37.163763 48.55127 37.162636 49.186806 L 37.165267 59.101831 C 37.165082 59.723461 37.655473 60.217661 38.291009 60.218788 L 42.771752 60.218365 C 43.407523 60.216015 43.946819 60.710035 43.945693 61.34557 L 43.943611 82.882893 C 43.946666 83.508235 44.482722 83.998542 45.107828 83.998963 Z M 67.584784 83.998317 L 78.756739 84.000475 C 79.381845 84.000895 79.876281 83.507028 79.876702 82.881921 L 79.874972 49.229299 C 79.876099 48.593763 79.340043 48.103455 78.714937 48.103035 L 67.539506 48.100642 C 66.903735 48.102992 66.413011 48.593618 66.411884 49.229154 L 66.413614 82.881777 C 66.413193 83.506883 66.959443 84.001373 67.584784 83.998317 Z M 91.27 83.999164 L 116.893581 83.998558 C 117.518688 83.998978 118.012472 83.463158 118.012892 82.838052 L 118.012035 72.999979 C 118.01222 72.37835 117.518353 71.883914 116.893246 71.883493 L 96.703711 71.885368 C 96.068176 71.884241 95.577785 71.390041 95.57797 70.768411 L 95.576911 61.345917 C 95.578038 60.710381 96.068997 60.216278 96.704532 60.217405 L 116.893832 60.219007 C 117.519173 60.215952 118.012957 59.680131 118.013378 59.055025 L 118.011579 49.230858 C 118.012706 48.595323 117.518838 48.100887 116.893732 48.100467 L 91.270151 48.101073 C 85.979109 48.102504 82.113886 51.958278 82.114611 57.259749 L 82.115036 74.840383 C 82.112049 80.145096 85.978958 84.000595 91.27 83.999164 Z M 121.370613 84.001376 L 132.54628 84.000292 C 133.171386 84.000713 133.707774 83.506194 133.708195 82.881088 L 133.705559 73.636598 C 133.706686 73.001062 134.201121 72.507195 134.836657 72.508322 C 135.458287 72.508507 135.952154 73.002943 135.951027 73.638478 L 135.953663 82.882968 C 135.953242 83.508074 136.447345 83.999033 137.068975 83.999218 L 148.244407 84.001611 C 148.880178 83.999261 149.41633 83.508219 149.416751 82.883112 L 149.417035 78.39194 C 149.414395 77.812027 149.373241 77.491435 149.228429 76.999681 L 146.1845 66.766959 C 145.999728 66.143282 146.052673 65.825568 146.183677 65.33503 L 149.230423 55.102638 C 149.372091 54.609329 149.417016 54.203764 149.415444 53.711233 L 149.415021 49.23049 C 149.416148 48.594954 148.880328 48.10117 148.244557 48.10352 L 137.069126 48.101127 C 136.447496 48.100942 135.95306 48.594809 135.951933 49.230345 L 135.951799 58.46417 C 135.954149 59.099941 135.459713 59.593808 134.834607 59.593388 C 134.199071 59.592261 133.708445 59.101537 133.706095 58.465766 L 133.706465 49.228465 C 133.707356 48.596406 133.171536 48.102622 132.54643 48.102201 L 121.370763 48.103285 C 120.735228 48.102158 120.244269 48.596261 120.243142 49.231797 L 120.244871 82.884419 C 120.244686 83.506049 120.735077 84.000249 121.370613 84.001376 Z M 152.816008 84.000356 L 186.468631 83.998627 C 187.093737 83.999047 187.587937 83.508656 187.588358 82.88355 L 187.586604 74.348072 C 187.587025 73.722965 187.050969 73.232658 186.425863 73.232237 L 166.236564 73.230635 C 165.600793 73.232985 165.106925 72.738549 165.107346 72.113443 C 165.108472 71.477907 165.602673 70.987516 166.238444 70.985166 L 184.67457 70.986793 C 185.2962 70.986978 185.790635 70.493111 185.791056 69.868004 L 185.791144 62.233683 C 185.791564 61.608577 185.255744 61.114793 184.630638 61.114372 L 166.236228 61.115571 C 165.600693 61.114444 165.110066 60.62372 165.10701 59.998378 C 165.108137 59.362843 165.602573 58.868975 166.238108 58.870102 L 186.46936 58.871053 C 187.094467 58.871473 187.588902 58.377606 187.585846 57.752264 L 187.586628 49.230927 C 187.587755 48.595391 187.093887 48.100956 186.468781 48.100535 L 152.774206 48.102916 C 152.13867 48.10179 151.644235 48.595657 151.646584 49.231428 L 151.644837 82.883815 C 151.644652 83.505445 152.194378 84.000171 152.816008 84.000356 Z M 197.762967 83.998594 L 208.934922 84.000751 C 209.570693 83.998401 210.064477 83.462581 210.064897 82.837475 L 210.063919 61.345346 C 210.065046 60.70981 210.601199 60.218767 211.226305 60.219188 L 215.717713 60.215995 C 216.342819 60.216416 216.833543 59.725789 216.833963 59.100683 L 216.835225 49.231323 C 216.833527 48.637504 216.342484 48.101351 215.717378 48.100931 L 190.948873 48.05816 C 190.313337 48.057033 189.822378 48.551136 189.821251 49.186672 L 189.820406 59.101461 C 189.820221 59.723091 190.314088 60.217527 190.949624 60.218654 L 195.430367 60.218231 C 196.065902 60.219358 196.601958 60.709665 196.600831 61.345201 L 196.602226 82.882759 C 196.601805 83.507866 197.137625 84.00165 197.762967 83.998594 Z M 197.762967 83.998594 " stroke="#ff2e9f" stroke-width="7.797049" stroke-opacity="1" stroke-miterlimit="4"/><g fill="#ffffff" fill-opacity="1"><g transform="translate(106.780122, 196.220661)"><g><path d="M 2.507812 -0.171875 L 33.324219 -2.257812 C 38.042969 -2.574219 41.269531 -6.273438 40.949219 -10.992188 L 40.578125 -16.511719 C 40.375 -19.472656 38.074219 -21.484375 35.113281 -21.285156 L 34.660156 -21.253906 C 33.957031 -21.207031 33.367188 -21.71875 33.320312 -22.421875 C 33.273438 -23.125 33.789062 -23.714844 34.488281 -23.761719 L 34.941406 -23.792969 C 37.902344 -23.992188 39.914062 -26.296875 39.714844 -29.257812 L 39.339844 -34.78125 C 39.019531 -39.496094 35.324219 -42.726562 30.605469 -42.40625 L -0.210938 -40.320312 C -0.910156 -40.273438 -1.425781 -39.683594 -1.378906 -38.980469 L 1.167969 -1.339844 C 1.21875 -0.636719 1.808594 -0.121094 2.507812 -0.171875 Z M 15.816406 -27.035156 C 15.113281 -26.988281 14.523438 -27.503906 14.476562 -28.207031 C 14.429688 -28.910156 14.941406 -29.496094 15.644531 -29.546875 L 23.171875 -30.054688 C 23.875 -30.101562 24.464844 -29.589844 24.511719 -28.886719 C 24.5625 -28.183594 24.046875 -27.59375 23.34375 -27.546875 Z M 16.765625 -12.984375 C 16.0625 -12.9375 15.476562 -13.449219 15.425781 -14.152344 C 15.378906 -14.855469 15.894531 -15.445312 16.597656 -15.492188 L 24.125 -16.003906 C 24.828125 -16.050781 25.417969 -15.535156 25.464844 -14.832031 C 25.511719 -14.128906 24.996094 -13.539062 24.296875 -13.492188 Z M 16.765625 -12.984375 "/></g></g></g><g fill="#ffffff" fill-opacity="1"><g transform="translate(149.52977, 193.325865)"><g><path d="M 2.558594 -0.171875 L 40.199219 -2.722656 C 40.902344 -2.769531 41.417969 -3.359375 41.371094 -4.0625 L 40.722656 -13.597656 C 40.675781 -14.300781 40.035156 -14.8125 39.335938 -14.765625 L 16.75 -13.234375 C 16.046875 -13.1875 15.457031 -13.703125 15.410156 -14.402344 C 15.363281 -15.105469 15.878906 -15.695312 16.578125 -15.742188 L 37.207031 -17.140625 C 37.910156 -17.1875 38.425781 -17.777344 38.375 -18.480469 L 37.800781 -27.011719 C 37.75 -27.714844 37.113281 -28.226562 36.410156 -28.179688 L 15.832031 -26.785156 C 15.128906 -26.738281 14.539062 -27.253906 14.492188 -27.953125 C 14.445312 -28.65625 14.960938 -29.246094 15.664062 -29.292969 L 38.296875 -30.828125 C 39 -30.875 39.515625 -31.464844 39.464844 -32.167969 L 38.820312 -41.703125 C 38.773438 -42.40625 38.183594 -42.917969 37.480469 -42.871094 L -0.210938 -40.320312 C -0.910156 -40.273438 -1.425781 -39.683594 -1.378906 -38.980469 L 1.167969 -1.339844 C 1.21875 -0.636719 1.855469 -0.125 2.558594 -0.171875 Z M 2.558594 -0.171875 "/></g></g></g><g fill="#ffffff" fill-opacity="1"><g transform="translate(192.229241, 190.434467)"><g><path d="M 2.507812 -0.171875 L 31.167969 -2.109375 C 37.089844 -2.511719 41.113281 -7.121094 40.710938 -13.042969 L 40.332031 -18.664062 C 39.929688 -24.585938 35.320312 -28.609375 29.398438 -28.207031 L 15.796875 -27.285156 C 15.097656 -27.238281 14.507812 -27.753906 14.457031 -28.457031 C 14.410156 -29.160156 14.925781 -29.75 15.628906 -29.796875 L 38.210938 -31.324219 C 38.914062 -31.375 39.429688 -31.960938 39.382812 -32.664062 L 38.769531 -41.699219 C 38.722656 -42.402344 38.132812 -42.917969 37.429688 -42.867188 L 8.773438 -40.929688 C 2.851562 -40.527344 -1.171875 -35.917969 -0.769531 -29.996094 L -0.390625 -24.375 C 0.0117188 -18.453125 4.621094 -14.429688 10.542969 -14.832031 L 24.140625 -15.75 C 24.84375 -15.800781 25.433594 -15.285156 25.480469 -14.582031 C 25.53125 -13.878906 25.015625 -13.289062 24.3125 -13.242188 L 1.726562 -11.714844 C 1.023438 -11.664062 0.511719 -11.074219 0.558594 -10.375 L 1.167969 -1.339844 C 1.21875 -0.636719 1.808594 -0.121094 2.507812 -0.171875 Z M 2.507812 -0.171875 "/></g></g></g><g fill="#ffffff" fill-opacity="1"><g transform="translate(234.878535, 187.546467)"><g><path d="M 10.136719 -0.6875 L 22.632812 -1.53125 C 23.335938 -1.582031 23.847656 -2.21875 23.800781 -2.921875 L 22.171875 -26.960938 C 22.125 -27.664062 22.691406 -28.257812 23.394531 -28.304688 L 28.410156 -28.644531 C 29.113281 -28.691406 29.628906 -29.28125 29.582031 -29.984375 L 28.832031 -41.027344 C 28.789062 -41.679688 28.195312 -42.242188 27.492188 -42.195312 L -0.210938 -40.371094 C -0.914062 -40.324219 -1.429688 -39.734375 -1.382812 -39.03125 L -0.632812 -27.9375 C -0.582031 -27.238281 0.00390625 -26.722656 0.707031 -26.769531 L 5.726562 -27.109375 C 6.429688 -27.15625 7.070312 -26.644531 7.117188 -25.941406 L 8.746094 -1.851562 C 8.796875 -1.148438 9.433594 -0.640625 10.136719 -0.6875 Z M 10.136719 -0.6875 "/></g></g></g><g fill="#ffffff" fill-opacity="1"><g transform="translate(88.791103, 246.878842)"><g><path d="M 10.136719 -0.6875 L 22.632812 -1.53125 C 23.335938 -1.582031 23.847656 -2.21875 23.800781 -2.921875 L 22.171875 -26.960938 C 22.125 -27.664062 22.691406 -28.257812 23.394531 -28.304688 L 28.410156 -28.644531 C 29.113281 -28.691406 29.628906 -29.28125 29.582031 -29.984375 L 28.832031 -41.027344 C 28.789062 -41.679688 28.195312 -42.242188 27.492188 -42.195312 L -0.210938 -40.371094 C -0.914062 -40.324219 -1.429688 -39.734375 -1.382812 -39.03125 L -0.632812 -27.9375 C -0.582031 -27.238281 0.00390625 -26.722656 0.707031 -26.769531 L 5.726562 -27.109375 C 6.429688 -27.15625 7.070312 -26.644531 7.117188 -25.941406 L 8.746094 -1.851562 C 8.796875 -1.148438 9.433594 -0.640625 10.136719 -0.6875 Z M 10.136719 -0.6875 "/></g></g></g><g fill="#ffffff" fill-opacity="1"><g transform="translate(121.505627, 244.663575)"><g><path d="M 2.558594 -0.171875 L 15.054688 -1.019531 C 15.757812 -1.066406 16.273438 -1.65625 16.226562 -2.359375 L 13.675781 -40 C 13.628906 -40.703125 12.988281 -41.214844 12.289062 -41.167969 L -0.210938 -40.320312 C -0.910156 -40.273438 -1.425781 -39.683594 -1.378906 -38.980469 L 1.167969 -1.339844 C 1.21875 -0.636719 1.855469 -0.125 2.558594 -0.171875 Z M 2.558594 -0.171875 "/></g></g></g><g fill="#ffffff" fill-opacity="1"><g transform="translate(139.0671, 243.474399)"><g><path d="M 11.492188 -0.777344 L 40.148438 -2.71875 C 40.851562 -2.765625 41.363281 -3.40625 41.316406 -4.109375 L 40.570312 -15.101562 C 40.523438 -15.800781 39.933594 -16.316406 39.230469 -16.269531 L 16.648438 -14.738281 C 15.945312 -14.691406 15.355469 -15.207031 15.308594 -15.910156 L 14.59375 -26.449219 C 14.546875 -27.152344 15.0625 -27.742188 15.765625 -27.789062 L 38.347656 -29.316406 C 39.050781 -29.367188 39.5625 -30.003906 39.515625 -30.707031 L 38.769531 -41.699219 C 38.722656 -42.402344 38.132812 -42.917969 37.429688 -42.867188 L 8.773438 -40.929688 C 2.851562 -40.527344 -1.171875 -35.917969 -0.769531 -29.996094 L 0.5625 -10.324219 C 0.960938 -4.402344 5.570312 -0.378906 11.492188 -0.777344 Z M 11.492188 -0.777344 "/></g></g></g><g fill="#ffffff" fill-opacity="1"><g transform="translate(181.716393, 240.586399)"><g><path d="M 2.507812 -0.171875 L 15.007812 -1.015625 C 15.707031 -1.0625 16.273438 -1.65625 16.226562 -2.359375 L 15.527344 -12.699219 C 15.476562 -13.402344 15.992188 -13.988281 16.695312 -14.039062 C 17.398438 -14.085938 17.988281 -13.570312 18.035156 -12.867188 L 18.734375 -2.527344 C 18.78125 -1.828125 19.371094 -1.3125 20.074219 -1.359375 L 32.570312 -2.207031 C 33.273438 -2.253906 33.839844 -2.847656 33.792969 -3.546875 L 33.453125 -8.566406 C 33.40625 -9.21875 33.332031 -9.566406 33.144531 -10.109375 L 28.957031 -21.320312 C 28.710938 -22.011719 28.734375 -22.363281 28.847656 -22.925781 L 31.488281 -34.601562 C 31.601562 -35.164062 31.621094 -35.617188 31.582031 -36.171875 L 31.242188 -41.1875 C 31.195312 -41.890625 30.554688 -42.402344 29.851562 -42.355469 L 17.355469 -41.507812 C 16.652344 -41.460938 16.140625 -40.871094 16.1875 -40.167969 L 16.886719 -29.832031 C 16.933594 -29.128906 16.417969 -28.539062 15.71875 -28.492188 C 15.015625 -28.445312 14.425781 -28.957031 14.378906 -29.660156 L 13.675781 -40 C 13.628906 -40.703125 12.988281 -41.214844 12.289062 -41.167969 L -0.210938 -40.320312 C -0.910156 -40.273438 -1.425781 -39.683594 -1.378906 -38.980469 L 1.167969 -1.339844 C 1.21875 -0.636719 1.808594 -0.121094 2.507812 -0.171875 Z M 2.507812 -0.171875 "/></g></g></g><g fill="#ffffff" fill-opacity="1"><g transform="translate(216.839339, 238.208046)"><g><path d="M 2.558594 -0.171875 L 40.199219 -2.722656 C 40.902344 -2.769531 41.417969 -3.359375 41.371094 -4.0625 L 40.722656 -13.597656 C 40.675781 -14.300781 40.035156 -14.8125 39.335938 -14.765625 L 16.75 -13.234375 C 16.046875 -13.1875 15.457031 -13.703125 15.410156 -14.402344 C 15.363281 -15.105469 15.878906 -15.695312 16.578125 -15.742188 L 37.207031 -17.140625 C 37.910156 -17.1875 38.425781 -17.777344 38.375 -18.480469 L 37.800781 -27.011719 C 37.75 -27.714844 37.113281 -28.226562 36.410156 -28.179688 L 15.832031 -26.785156 C 15.128906 -26.738281 14.539062 -27.253906 14.492188 -27.953125 C 14.445312 -28.65625 14.960938 -29.246094 15.664062 -29.292969 L 38.296875 -30.828125 C 39 -30.875 39.515625 -31.464844 39.464844 -32.167969 L 38.820312 -41.703125 C 38.773438 -42.40625 38.183594 -42.917969 37.480469 -42.871094 L -0.210938 -40.320312 C -0.910156 -40.273438 -1.425781 -39.683594 -1.378906 -38.980469 L 1.167969 -1.339844 C 1.21875 -0.636719 1.855469 -0.125 2.558594 -0.171875 Z M 2.558594 -0.171875 "/></g></g></g><g fill="#ffffff" fill-opacity="1"><g transform="translate(259.53881, 235.316648)"><g><path d="M 10.136719 -0.6875 L 22.632812 -1.53125 C 23.335938 -1.582031 23.847656 -2.21875 23.800781 -2.921875 L 22.171875 -26.960938 C 22.125 -27.664062 22.691406 -28.257812 23.394531 -28.304688 L 28.410156 -28.644531 C 29.113281 -28.691406 29.628906 -29.28125 29.582031 -29.984375 L 28.832031 -41.027344 C 28.789062 -41.679688 28.195312 -42.242188 27.492188 -42.195312 L -0.210938 -40.371094 C -0.914062 -40.324219 -1.429688 -39.734375 -1.382812 -39.03125 L -0.632812 -27.9375 C -0.582031 -27.238281 0.00390625 -26.722656 0.707031 -26.769531 L 5.726562 -27.109375 C 6.429688 -27.15625 7.070312 -26.644531 7.117188 -25.941406 L 8.746094 -1.851562 C 8.796875 -1.148438 9.433594 -0.640625 10.136719 -0.6875 Z M 10.136719 -0.6875 "/></g></g></g></svg>