<svg xmlns="http://www.w3.org/2000/svg" xmlns:xlink="http://www.w3.org/1999/xlink"
     width="500" zoomAndPan="magnify" viewBox="0 0 375 374.999991"
     height="500" preserveAspectRatio="xMidYMid meet" version="1.0">
    <defs>
        <g/>
        <clipPath id="5ecabf487a">
            <path d="M 118 106 L 244 106 L 244 204 L 118 204 Z M 118 106 " clip-rule="nonzero"/>
        </clipPath>
        <clipPath id="2f0648158f">
            <path d="M 103.71875 175.167969 L 225.65625 87.816406 L 260.597656 136.589844 L 138.660156 223.945312 Z M 103.71875 175.167969 "
                  clip-rule="nonzero"/>
        </clipPath>
        <clipPath id="f4cbc4d9be">
            <path d="M 103.71875 175.167969 L 225.65625 87.816406 L 260.597656 136.589844 L 138.660156 223.945312 Z M 103.71875 175.167969 "
                  clip-rule="nonzero"/>
        </clipPath>
    </defs>
    <g fill="#000000" fill-opacity="1">
        <g transform="translate(137.056907, 180.331423)">
            <g>
                <path d="M 33.03125 -36.359375 C 32.019531 -35.304688 30.878906 -34.53125 29.609375 -34.03125 C 35.054688 -33.25 39.195312 -31.316406 42.03125 -28.234375 C 44.863281 -25.148438 46.28125 -21.382812 46.28125 -16.9375 C 46.28125 -11.539062 44.113281 -7.171875 39.78125 -3.828125 C 35.445312 -0.492188 29.75 1.171875 22.6875 1.171875 C 15.625 1.171875 10.085938 -0.566406 6.078125 -4.046875 C 2.078125 -7.523438 0.078125 -12.429688 0.078125 -18.765625 C 0.078125 -19.097656 0.078125 -19.429688 0.078125 -19.765625 L 1 -19.9375 C 2.101562 -11.644531 5.550781 -6.28125 11.34375 -3.84375 L 11.34375 -52.375 C 11.226562 -53.875 10.65625 -55.109375 9.625 -56.078125 C 8.59375 -57.054688 7.359375 -57.546875 5.921875 -57.546875 L 4.921875 -57.546875 L 4.921875 -58.390625 L 18.921875 -58.390625 C 24.148438 -58.390625 28.332031 -57.191406 31.46875 -54.796875 C 34.613281 -52.410156 36.1875 -49.285156 36.1875 -45.421875 C 36.1875 -41.554688 35.132812 -38.535156 33.03125 -36.359375 Z M 16.765625 -55.71875 L 16.765625 -2.328125 C 18.597656 -2.054688 20.707031 -1.921875 23.09375 -1.921875 C 28.4375 -1.921875 32.59375 -3.351562 35.5625 -6.21875 C 38.539062 -9.082031 40.03125 -12.789062 40.03125 -17.34375 C 40.03125 -19.789062 39.570312 -21.957031 38.65625 -23.84375 C 37.738281 -25.738281 36.582031 -27.21875 35.1875 -28.28125 C 31.519531 -31.113281 26.347656 -32.53125 19.671875 -32.53125 C 19.617188 -32.53125 19.59375 -32.53125 19.59375 -32.53125 L 19.515625 -33.28125 C 19.566406 -33.28125 19.59375 -33.28125 19.59375 -33.28125 C 22.425781 -33.28125 24.859375 -34.210938 26.890625 -36.078125 C 28.921875 -37.941406 29.9375 -40.816406 29.9375 -44.703125 C 29.9375 -52.046875 25.90625 -55.71875 17.84375 -55.71875 Z M 16.765625 -55.71875 "/>
            </g>
        </g>
    </g>
    <g clip-path="url(#5ecabf487a)">
        <g clip-path="url(#2f0648158f)">
            <g clip-path="url(#f4cbc4d9be)">
                <path fill="#000000"
                      d="M 230.671875 106.828125 C 225.707031 106.546875 220.65625 107.324219 215.867188 108.605469 C 210.945312 109.921875 206.152344 111.578125 201.449219 113.542969 C 196.785156 115.488281 192.257812 117.722656 187.789062 120.089844 C 183.316406 122.460938 178.960938 125.074219 174.699219 127.808594 C 170.457031 130.527344 166.292969 133.386719 162.269531 136.425781 C 158.210938 139.488281 154.257812 142.671875 150.414062 146 C 146.59375 149.304688 142.90625 152.789062 139.40625 156.429688 C 136.960938 158.972656 134.628906 161.605469 132.351562 164.300781 C 132.195312 164.285156 132.042969 164.269531 131.886719 164.242188 C 130.804688 164.0625 129.804688 163.679688 128.921875 163.101562 C 128.832031 163.042969 128.75 162.984375 128.664062 162.921875 C 128.101562 162.488281 127.5625 162.039062 127.039062 161.558594 C 126.410156 160.976562 125.972656 160.496094 125.441406 159.882812 C 125.382812 159.78125 125.28125 159.789062 125.210938 159.847656 C 125.132812 159.890625 125.089844 159.988281 125.164062 160.078125 C 125.566406 160.789062 125.875 161.363281 126.230469 162.132812 C 126.554688 162.835938 126.808594 163.558594 127.054688 164.292969 C 127.058594 164.304688 127.0625 164.3125 127.066406 164.320312 C 127.078125 164.351562 127.082031 164.382812 127.089844 164.410156 C 127.175781 164.773438 127.203125 164.902344 127.265625 165.269531 C 127.304688 165.515625 127.3125 165.765625 127.332031 166.011719 C 127.339844 166.148438 127.328125 166.285156 127.328125 166.421875 C 127.328125 166.609375 127.328125 166.554688 127.3125 166.742188 C 127.222656 167.890625 126.964844 168.804688 126.417969 169.820312 C 126.40625 169.835938 126.324219 169.980469 126.371094 169.910156 C 126.335938 169.960938 126.304688 170.011719 126.273438 170.0625 C 126.199219 170.183594 126.125 170.300781 126.046875 170.417969 C 125.570312 171.023438 125.09375 171.625 124.570312 172.191406 C 123.988281 172.820312 123.507812 173.257812 122.890625 173.792969 C 122.878906 173.800781 122.867188 173.808594 122.859375 173.816406 C 122.714844 173.917969 122.566406 174.023438 122.421875 174.128906 C 122.246094 174.253906 122.441406 174.53125 122.617188 174.402344 C 122.773438 174.292969 122.929688 174.179688 123.089844 174.066406 C 123.796875 173.664062 124.371094 173.355469 125.144531 172.996094 C 125.484375 172.839844 125.832031 172.699219 126.179688 172.570312 C 123.640625 176.414062 121.238281 180.535156 119.867188 184.945312 C 118.519531 189.28125 117.648438 194.640625 120.648438 198.527344 C 123.628906 202.386719 128.855469 203.277344 133.453125 203.273438 C 138.351562 203.265625 143.230469 202.265625 147.929688 200.949219 C 152.699219 199.613281 157.328125 197.867188 161.886719 195.933594 C 166.414062 194.011719 170.832031 191.804688 175.144531 189.445312 C 179.507812 187.058594 183.765625 184.5 187.953125 181.808594 C 192.246094 179.050781 196.375 176.070312 200.484375 173.046875 C 204.441406 170.136719 208.28125 166.988281 211.953125 163.726562 C 215.6875 160.40625 219.304688 157.039062 222.773438 153.414062 C 224.363281 151.753906 225.914062 150.0625 227.4375 148.339844 C 227.609375 148.277344 227.78125 148.21875 227.957031 148.160156 C 228.089844 148.125 228.226562 148.089844 228.359375 148.054688 C 228.546875 148.007812 228.488281 148.019531 228.679688 147.992188 C 228.96875 147.949219 229.253906 147.914062 229.546875 147.886719 C 229.644531 147.878906 229.734375 147.875 229.832031 147.875 C 229.925781 147.878906 230.019531 147.878906 230.109375 147.878906 C 230.140625 147.878906 230.339844 147.886719 230.257812 147.878906 C 230.515625 147.90625 230.773438 147.925781 231.027344 147.964844 C 231.324219 148.007812 231.59375 148.066406 231.878906 148.144531 C 231.898438 148.148438 232.058594 148.195312 231.976562 148.167969 C 232.035156 148.1875 232.09375 148.207031 232.152344 148.226562 C 232.285156 148.269531 232.429688 148.300781 232.558594 148.359375 C 232.789062 148.457031 233.023438 148.554688 233.246094 148.671875 C 233.566406 148.839844 233.667969 148.898438 233.976562 149.097656 C 234.078125 149.160156 234.175781 149.234375 234.269531 149.308594 C 234.808594 149.730469 235.339844 150.160156 235.84375 150.628906 C 236.148438 150.914062 236.441406 151.207031 236.738281 151.503906 C 236.757812 151.527344 236.910156 151.6875 236.847656 151.617188 C 236.902344 151.679688 236.957031 151.742188 237.011719 151.808594 C 237.160156 151.976562 237.308594 152.144531 237.453125 152.316406 C 237.460938 152.328125 237.46875 152.335938 237.476562 152.347656 C 237.585938 152.496094 237.691406 152.644531 237.796875 152.796875 C 237.925781 152.972656 238.199219 152.777344 238.074219 152.597656 C 237.957031 152.4375 237.84375 152.277344 237.730469 152.117188 C 237.625 151.933594 237.523438 151.753906 237.421875 151.570312 C 237.375 151.484375 237.328125 151.402344 237.28125 151.320312 C 237.28125 151.316406 237.277344 151.316406 237.277344 151.316406 C 237.257812 151.277344 237.234375 151.234375 237.214844 151.195312 C 237.015625 150.816406 236.828125 150.441406 236.652344 150.050781 C 236.339844 149.347656 236.085938 148.628906 235.839844 147.902344 C 235.835938 147.894531 235.832031 147.882812 235.828125 147.875 C 235.820312 147.84375 235.8125 147.816406 235.804688 147.785156 C 235.722656 147.425781 235.699219 147.296875 235.632812 146.929688 C 235.589844 146.6875 235.585938 146.441406 235.570312 146.195312 C 235.5625 146.054688 235.570312 145.917969 235.566406 145.777344 C 235.566406 145.585938 235.566406 145.640625 235.578125 145.453125 C 235.671875 144.296875 235.949219 143.410156 236.480469 142.378906 C 236.488281 142.359375 236.570312 142.214844 236.523438 142.285156 C 236.558594 142.238281 236.589844 142.1875 236.625 142.136719 C 236.699219 142.019531 236.777344 141.902344 236.855469 141.789062 C 237.3125 141.1875 237.773438 140.589844 238.296875 140.042969 C 238.589844 139.738281 238.886719 139.4375 239.1875 139.140625 C 239.210938 139.121094 239.371094 138.96875 239.300781 139.03125 C 239.363281 138.972656 239.425781 138.917969 239.488281 138.859375 C 239.65625 138.710938 239.824219 138.5625 239.992188 138.410156 C 240.09375 138.351562 240.082031 138.246094 240.019531 138.175781 C 239.972656 138.101562 239.878906 138.058594 239.792969 138.136719 C 239.613281 138.242188 239.433594 138.347656 239.25 138.453125 C 239.171875 138.5 239.089844 138.550781 239.007812 138.597656 C 238.964844 138.617188 238.925781 138.636719 238.886719 138.65625 C 238.511719 138.847656 238.136719 139.03125 237.75 139.203125 C 237.046875 139.515625 236.324219 139.777344 235.597656 140.035156 C 235.460938 140.066406 235.324219 140.097656 235.1875 140.132812 C 235 140.175781 235.054688 140.164062 234.867188 140.195312 C 234.574219 140.246094 234.296875 140.277344 234 140.300781 C 233.949219 140.300781 233.898438 140.304688 233.851562 140.308594 C 236.707031 136.347656 239.277344 132.164062 241.175781 127.65625 C 243.019531 123.265625 244.28125 118.140625 242.511719 113.535156 C 240.707031 108.84375 235.257812 107.085938 230.671875 106.828125 Z M 241.488281 112.304688 C 242.78125 114.425781 243.144531 116.828125 242.992188 119.277344 C 242.6875 124.183594 240.488281 128.957031 238.078125 133.164062 C 236.667969 135.632812 235.101562 138.011719 233.425781 140.320312 C 233.136719 140.316406 232.855469 140.289062 232.523438 140.226562 C 232.238281 140.175781 231.957031 140.113281 231.671875 140.046875 C 231.652344 140.042969 231.496094 140 231.574219 140.027344 C 231.515625 140.007812 231.460938 139.988281 231.402344 139.96875 C 231.273438 139.921875 231.132812 139.882812 231.007812 139.828125 C 230.765625 139.726562 230.519531 139.632812 230.289062 139.507812 C 230.210938 139.464844 230.132812 139.421875 230.050781 139.378906 C 230.035156 139.367188 229.890625 139.285156 229.960938 139.332031 C 229.820312 139.242188 229.679688 139.15625 229.539062 139.066406 C 229.523438 139.058594 229.511719 139.050781 229.496094 139.039062 C 229.488281 139.03125 229.480469 139.023438 229.472656 139.015625 C 228.871094 138.554688 228.277344 138.089844 227.722656 137.578125 C 227.402344 137.285156 227.105469 136.980469 226.804688 136.664062 C 226.777344 136.636719 226.746094 136.605469 226.71875 136.574219 C 226.671875 136.527344 226.707031 136.5625 226.707031 136.566406 C 226.648438 136.496094 226.585938 136.425781 226.523438 136.359375 C 226.378906 136.195312 226.234375 136.035156 226.089844 135.871094 C 226.03125 135.769531 225.921875 135.78125 225.855469 135.839844 C 225.777344 135.886719 225.738281 135.980469 225.8125 136.066406 C 225.917969 136.242188 226.019531 136.417969 226.121094 136.59375 C 226.171875 136.679688 226.226562 136.769531 226.277344 136.855469 C 226.277344 136.859375 226.28125 136.863281 226.28125 136.867188 C 226.296875 136.894531 226.3125 136.925781 226.324219 136.957031 C 226.511719 137.328125 226.699219 137.695312 226.867188 138.078125 C 227.152344 138.722656 227.398438 139.382812 227.636719 140.046875 C 227.675781 140.164062 227.710938 140.28125 227.742188 140.398438 C 227.835938 140.761719 227.859375 140.886719 227.914062 141.253906 C 227.953125 141.5 227.96875 141.746094 227.992188 141.996094 C 228.003906 142.132812 227.988281 142.277344 227.988281 142.417969 C 227.984375 142.609375 227.988281 142.550781 227.972656 142.738281 C 227.929688 143.277344 227.828125 143.792969 227.707031 144.320312 C 227.726562 144.238281 227.675781 144.394531 227.671875 144.414062 C 227.640625 144.503906 227.609375 144.589844 227.578125 144.675781 C 227.542969 144.777344 227.507812 144.878906 227.464844 144.980469 C 227.347656 145.253906 227.226562 145.511719 227.085938 145.769531 C 227.058594 145.824219 227.027344 145.875 227 145.925781 C 227.042969 145.851562 226.957031 145.996094 226.945312 146.015625 C 226.863281 146.148438 226.78125 146.277344 226.699219 146.410156 C 226.21875 147.019531 225.738281 147.625 225.207031 148.195312 C 224.933594 148.492188 224.652344 148.773438 224.363281 149.054688 C 224.339844 149.078125 224.179688 149.226562 224.25 149.167969 C 224.1875 149.222656 224.125 149.277344 224.058594 149.332031 C 223.890625 149.480469 223.722656 149.625 223.550781 149.773438 C 223.539062 149.78125 223.527344 149.789062 223.519531 149.796875 C 223.375 149.902344 223.226562 150.003906 223.082031 150.109375 C 222.90625 150.238281 223.101562 150.511719 223.28125 150.382812 C 223.4375 150.273438 223.59375 150.160156 223.75 150.046875 C 223.929688 149.945312 224.113281 149.84375 224.296875 149.738281 C 224.378906 149.695312 224.460938 149.648438 224.539062 149.601562 C 224.542969 149.601562 224.542969 149.601562 224.542969 149.601562 C 224.582031 149.582031 224.625 149.5625 224.664062 149.539062 C 225.035156 149.355469 225.402344 149.167969 225.777344 148.996094 C 226.105469 148.84375 226.4375 148.707031 226.773438 148.578125 C 223.605469 152.140625 220.300781 155.566406 216.832031 158.835938 C 213.316406 162.148438 209.546875 165.480469 205.699219 168.542969 C 201.722656 171.710938 197.675781 174.765625 193.507812 177.671875 C 189.363281 180.566406 185.109375 183.316406 180.75 185.875 C 176.429688 188.414062 172.117188 190.761719 167.613281 192.945312 C 163.171875 195.101562 158.617188 196.992188 153.980469 198.683594 C 149.359375 200.371094 144.550781 201.683594 139.703125 202.410156 C 135.007812 203.117188 129.84375 203.421875 125.355469 201.59375 C 123.28125 200.75 121.148438 199.257812 120.167969 197.167969 C 119.148438 194.988281 118.746094 192.621094 119.046875 190.21875 C 119.65625 185.332031 121.660156 180.824219 124.089844 176.582031 C 124.902344 175.160156 125.792969 173.757812 126.710938 172.378906 C 126.90625 172.308594 127.105469 172.242188 127.304688 172.175781 C 127.4375 172.140625 127.574219 172.105469 127.707031 172.070312 C 127.894531 172.019531 127.839844 172.03125 128.027344 172.003906 C 128.316406 171.960938 128.597656 171.929688 128.886719 171.90625 C 128.984375 171.898438 129.074219 171.894531 129.167969 171.898438 C 129.261719 171.898438 129.355469 171.898438 129.449219 171.902344 C 129.476562 171.902344 129.675781 171.90625 129.597656 171.902344 C 129.855469 171.921875 130.117188 171.9375 130.375 171.976562 C 130.664062 172.027344 130.941406 172.085938 131.226562 172.15625 C 131.246094 172.164062 131.40625 172.210938 131.328125 172.183594 C 131.382812 172.203125 131.441406 172.222656 131.496094 172.242188 C 131.628906 172.285156 131.765625 172.328125 131.894531 172.378906 C 132.136719 172.476562 132.375 172.566406 132.605469 172.691406 C 132.917969 172.867188 133.035156 172.9375 133.355469 173.132812 C 133.367188 173.140625 133.382812 173.148438 133.398438 173.160156 C 133.402344 173.167969 133.410156 173.175781 133.421875 173.183594 C 134.03125 173.648438 134.632812 174.113281 135.1875 174.644531 C 135.488281 174.933594 135.78125 175.226562 136.074219 175.523438 C 136.097656 175.546875 136.246094 175.707031 136.1875 175.636719 C 136.242188 175.699219 136.296875 175.761719 136.355469 175.824219 C 136.503906 175.992188 136.652344 176.160156 136.804688 176.328125 C 136.917969 176.488281 137.03125 176.648438 137.148438 176.808594 C 137.273438 176.984375 137.550781 176.789062 137.421875 176.609375 C 137.316406 176.460938 137.207031 176.3125 137.101562 176.164062 C 137.09375 176.152344 137.085938 176.140625 137.078125 176.128906 C 136.972656 175.949219 136.867188 175.769531 136.761719 175.585938 C 136.714844 175.507812 136.667969 175.425781 136.617188 175.34375 C 136.617188 175.339844 136.613281 175.335938 136.613281 175.328125 C 136.589844 175.28125 136.566406 175.234375 136.542969 175.191406 C 136.351562 174.816406 136.171875 174.445312 136 174.0625 C 135.710938 173.417969 135.460938 172.761719 135.234375 172.09375 C 135.203125 171.996094 135.175781 171.898438 135.152344 171.800781 C 135.0625 171.445312 135.039062 171.332031 134.980469 170.972656 C 134.941406 170.722656 134.929688 170.472656 134.90625 170.21875 C 134.898438 170.097656 134.90625 169.96875 134.90625 169.84375 C 134.90625 169.777344 134.902344 169.707031 134.902344 169.636719 C 134.90625 169.597656 134.910156 169.558594 134.914062 169.515625 C 135.003906 168.359375 135.277344 167.460938 135.808594 166.429688 C 135.835938 166.378906 135.863281 166.324219 135.890625 166.269531 C 135.851562 166.347656 135.933594 166.207031 135.945312 166.1875 C 136.027344 166.0625 136.109375 165.933594 136.191406 165.808594 C 136.65625 165.199219 137.125 164.597656 137.65625 164.042969 C 137.945312 163.742188 138.238281 163.449219 138.535156 163.15625 C 138.558594 163.132812 138.71875 162.980469 138.648438 163.042969 C 138.710938 162.988281 138.773438 162.929688 138.835938 162.875 C 139.003906 162.726562 139.171875 162.574219 139.339844 162.425781 C 139.441406 162.367188 139.429688 162.261719 139.367188 162.191406 C 139.320312 162.113281 139.226562 162.074219 139.140625 162.148438 C 138.960938 162.253906 138.78125 162.363281 138.597656 162.46875 C 138.519531 162.515625 138.4375 162.5625 138.355469 162.609375 C 138.316406 162.628906 138.273438 162.652344 138.234375 162.671875 C 137.863281 162.855469 137.496094 163.039062 137.117188 163.210938 C 136.402344 163.53125 135.671875 163.792969 134.933594 164.054688 C 134.800781 164.085938 134.664062 164.117188 134.53125 164.148438 C 134.34375 164.1875 134.402344 164.175781 134.214844 164.207031 C 133.921875 164.257812 133.640625 164.289062 133.347656 164.3125 C 133.25 164.320312 133.15625 164.324219 133.0625 164.324219 C 132.96875 164.324219 132.878906 164.324219 132.785156 164.324219 C 132.785156 164.324219 132.777344 164.324219 132.773438 164.324219 C 136.011719 160.5 139.386719 156.816406 142.976562 153.3125 C 146.65625 149.722656 150.488281 146.257812 154.492188 142.980469 C 158.386719 139.792969 162.359375 136.726562 166.453125 133.796875 C 170.484375 130.90625 174.628906 128.15625 178.871094 125.589844 C 183.292969 122.917969 187.730469 120.449219 192.320312 118.121094 C 196.910156 115.789062 201.640625 113.714844 206.464844 111.929688 C 211.183594 110.183594 215.996094 108.765625 220.933594 107.847656 C 223.382812 107.390625 225.871094 107.15625 228.359375 107.105469 C 230.832031 107.054688 233.429688 107.304688 235.777344 108.121094 C 238.042969 108.910156 240.210938 110.207031 241.488281 112.304688 Z M 241.488281 112.304688 "
                      fill-opacity="1" fill-rule="nonzero"/>
            </g>
        </g>
    </g>
    <g fill="#000000" fill-opacity="1">
        <g transform="translate(155.087061, 180.331423)">
            <g>
                <path d="M -4.84375 -41.78125 C -6.5625 -43.84375 -7.421875 -45.890625 -7.421875 -47.921875 C -7.421875 -49.953125 -6.945312 -51.703125 -6 -53.171875 C -5.0625 -54.640625 -3.535156 -55.890625 -1.421875 -56.921875 C 0.691406 -57.953125 3.082031 -58.46875 5.75 -58.46875 L 39.953125 -58.46875 C 41.671875 -58.46875 43.570312 -58.632812 45.65625 -58.96875 C 47.738281 -59.300781 49.195312 -59.632812 50.03125 -59.96875 L 50.03125 -49.453125 L 49.203125 -49.546875 L 49.203125 -50.96875 C 49.203125 -52.300781 48.726562 -53.453125 47.78125 -54.421875 C 46.84375 -55.390625 45.734375 -55.90625 44.453125 -55.96875 L 28.609375 -55.96875 L 28.609375 -6 C 28.660156 -4 29.546875 -2.5 31.265625 -1.5 C 32.097656 -1.050781 32.988281 -0.828125 33.9375 -0.828125 L 35.03125 -0.828125 L 35.03125 0 L 16.765625 0 L 16.765625 -0.828125 L 17.84375 -0.828125 C 19.289062 -0.828125 20.523438 -1.328125 21.546875 -2.328125 C 22.578125 -3.335938 23.125 -4.535156 23.1875 -5.921875 L 23.1875 -55.96875 L 5.75 -55.96875 C 1.300781 -55.96875 -1.921875 -54.550781 -3.921875 -51.71875 C -4.984375 -50.269531 -5.515625 -48.753906 -5.515625 -47.171875 C -5.515625 -45.585938 -5.066406 -43.929688 -4.171875 -42.203125 Z M -4.84375 -41.78125 "/>
            </g>
        </g>
    </g>
    <g fill="#000000" fill-opacity="1">
        <g transform="translate(99.458531, 263.351438)">
            <g>
                <path d="M 8.8125 0 L 1.734375 0 L 1.765625 -0.296875 L 2.109375 -0.296875 C 2.617188 -0.296875 3.050781 -0.46875 3.40625 -0.8125 C 3.757812 -1.15625 3.945312 -1.582031 3.96875 -2.09375 L 3.96875 -18.203125 C 3.96875 -18.703125 3.785156 -19.125 3.421875 -19.46875 C 3.054688 -19.820312 2.617188 -20 2.109375 -20 L 1.765625 -20 L 1.734375 -20.28125 L 7.5 -20.28125 C 9.5 -20.28125 11.046875 -19.84375 12.140625 -18.96875 C 13.242188 -18.09375 13.796875 -16.921875 13.796875 -15.453125 C 13.796875 -14.285156 13.484375 -13.320312 12.859375 -12.5625 C 12.242188 -11.800781 11.492188 -11.296875 10.609375 -11.046875 C 12.128906 -10.804688 13.332031 -10.175781 14.21875 -9.15625 C 15.113281 -8.132812 15.5625 -6.84375 15.5625 -5.28125 C 15.5625 -3.726562 14.96875 -2.457031 13.78125 -1.46875 C 12.59375 -0.488281 10.9375 0 8.8125 0 Z M 5.859375 -1.046875 L 8.6875 -1.046875 C 8.707031 -1.046875 8.726562 -1.046875 8.75 -1.046875 C 10.21875 -1.046875 11.359375 -1.445312 12.171875 -2.25 C 12.984375 -3.050781 13.390625 -4.1875 13.390625 -5.65625 C 13.390625 -6.476562 13.25 -7.203125 12.96875 -7.828125 C 12.6875 -8.460938 12.332031 -8.960938 11.90625 -9.328125 C 10.789062 -10.253906 9.113281 -10.71875 6.875 -10.71875 C 6.875 -10.71875 6.863281 -10.71875 6.84375 -10.71875 L 6.84375 -10.984375 C 6.863281 -10.984375 6.953125 -10.984375 7.109375 -10.984375 C 7.273438 -10.984375 7.515625 -11 7.828125 -11.03125 C 8.140625 -11.070312 8.488281 -11.140625 8.875 -11.234375 C 9.257812 -11.335938 9.601562 -11.492188 9.90625 -11.703125 C 10.21875 -11.921875 10.507812 -12.175781 10.78125 -12.46875 C 11.34375 -13.101562 11.625 -14.050781 11.625 -15.3125 C 11.625 -16.582031 11.257812 -17.570312 10.53125 -18.28125 C 9.8125 -19 8.765625 -19.359375 7.390625 -19.359375 L 5.859375 -19.359375 Z M 5.859375 -1.046875 "/>
            </g>
        </g>
    </g>
    <g fill="#000000" fill-opacity="1">
        <g transform="translate(116.444933, 263.351438)">
            <g>
                <path d="M 2.109375 -0.296875 C 2.617188 -0.296875 3.050781 -0.472656 3.40625 -0.828125 C 3.757812 -1.179688 3.945312 -1.609375 3.96875 -2.109375 L 3.96875 -18.34375 C 3.914062 -18.8125 3.710938 -19.203125 3.359375 -19.515625 C 3.015625 -19.835938 2.597656 -20 2.109375 -20 L 1.765625 -20 L 1.734375 -20.28125 L 10.234375 -20.28125 C 10.828125 -20.28125 11.476562 -20.335938 12.1875 -20.453125 C 12.894531 -20.578125 13.394531 -20.695312 13.6875 -20.8125 L 13.6875 -17.15625 L 13.390625 -17.15625 L 13.390625 -17.6875 C 13.390625 -18.144531 13.226562 -18.535156 12.90625 -18.859375 C 12.59375 -19.191406 12.210938 -19.367188 11.765625 -19.390625 L 5.859375 -19.390625 L 5.859375 -10.4375 L 10.75 -10.4375 C 11.132812 -10.457031 11.460938 -10.601562 11.734375 -10.875 C 12.003906 -11.144531 12.140625 -11.484375 12.140625 -11.890625 L 12.140625 -12.296875 L 12.4375 -12.296875 L 12.4375 -7.703125 L 12.140625 -7.703125 L 12.140625 -8.140625 C 12.140625 -8.523438 12.007812 -8.851562 11.75 -9.125 C 11.488281 -9.394531 11.164062 -9.539062 10.78125 -9.5625 L 5.859375 -9.5625 L 5.859375 -0.90625 L 10 -0.90625 C 11.425781 -0.90625 12.515625 -1.222656 13.265625 -1.859375 C 14.023438 -2.492188 14.65625 -3.441406 15.15625 -4.703125 L 15.453125 -4.703125 L 13.765625 0 L 1.734375 0 L 1.734375 -0.296875 Z M 2.109375 -0.296875 "/>
            </g>
        </g>
    </g>
    <g fill="#000000" fill-opacity="1">
        <g transform="translate(133.17045, 263.351438)">
            <g>
                <path d="M 1.765625 -1.1875 C 1.710938 -1.457031 1.6875 -1.976562 1.6875 -2.75 C 1.6875 -3.519531 1.828125 -4.34375 2.109375 -5.21875 L 2.375 -5.21875 C 2.351562 -5 2.34375 -4.785156 2.34375 -4.578125 C 2.34375 -3.398438 2.703125 -2.421875 3.421875 -1.640625 C 4.140625 -0.859375 5.085938 -0.46875 6.265625 -0.46875 C 7.484375 -0.46875 8.484375 -0.832031 9.265625 -1.5625 C 10.046875 -2.300781 10.4375 -3.222656 10.4375 -4.328125 C 10.4375 -5.441406 10.054688 -6.347656 9.296875 -7.046875 L 3.734375 -12.203125 C 2.691406 -13.171875 2.171875 -14.335938 2.171875 -15.703125 C 2.171875 -17.078125 2.628906 -18.25 3.546875 -19.21875 C 4.460938 -20.195312 5.707031 -20.6875 7.28125 -20.6875 C 8.007812 -20.6875 8.835938 -20.59375 9.765625 -20.40625 L 10.890625 -20.40625 L 10.890625 -16.84375 L 10.640625 -16.84375 C 10.640625 -17.75 10.320312 -18.472656 9.6875 -19.015625 C 9.0625 -19.554688 8.253906 -19.828125 7.265625 -19.828125 C 6.285156 -19.828125 5.460938 -19.5 4.796875 -18.84375 C 4.128906 -18.1875 3.796875 -17.363281 3.796875 -16.375 C 3.796875 -15.382812 4.179688 -14.535156 4.953125 -13.828125 L 10.671875 -8.546875 C 11.628906 -7.660156 12.109375 -6.441406 12.109375 -4.890625 C 12.109375 -3.347656 11.613281 -2.078125 10.625 -1.078125 C 9.644531 -0.0859375 8.335938 0.40625 6.703125 0.40625 C 5.847656 0.40625 4.941406 0.273438 3.984375 0.015625 C 3.023438 -0.242188 2.285156 -0.644531 1.765625 -1.1875 Z M 1.765625 -1.1875 "/>
            </g>
        </g>
    </g>
    <g fill="#000000" fill-opacity="1">
        <g transform="translate(146.939294, 263.351438)">
            <g>
                <path d="M 17.078125 -17.703125 C 17.078125 -18.171875 16.910156 -18.570312 16.578125 -18.90625 C 16.253906 -19.25 15.867188 -19.429688 15.421875 -19.453125 L 9.90625 -19.453125 L 9.90625 -2.09375 C 9.925781 -1.582031 10.113281 -1.15625 10.46875 -0.8125 C 10.832031 -0.46875 11.265625 -0.296875 11.765625 -0.296875 L 12.140625 -0.296875 L 12.140625 0 L 5.796875 0 L 5.796875 -0.296875 L 6.171875 -0.296875 C 6.671875 -0.296875 7.097656 -0.46875 7.453125 -0.8125 C 7.816406 -1.15625 8.007812 -1.570312 8.03125 -2.0625 L 8.03125 -19.453125 L 2.515625 -19.453125 C 2.054688 -19.429688 1.664062 -19.25 1.34375 -18.90625 C 1.03125 -18.570312 0.875 -18.171875 0.875 -17.703125 L 0.875 -17.21875 L 0.578125 -17.1875 L 0.578125 -20.84375 C 0.867188 -20.726562 1.367188 -20.609375 2.078125 -20.484375 C 2.796875 -20.367188 3.457031 -20.3125 4.0625 -20.3125 L 13.859375 -20.3125 C 14.804688 -20.3125 15.59375 -20.382812 16.21875 -20.53125 C 16.84375 -20.675781 17.222656 -20.78125 17.359375 -20.84375 L 17.359375 -17.1875 L 17.078125 -17.21875 Z M 17.078125 -17.703125 "/>
            </g>
        </g>
    </g>
    <g fill="#000000" fill-opacity="1">
        <g transform="translate(164.853277, 263.351438)">
            <g/>
        </g>
    </g>
    <g fill="#000000" fill-opacity="1">
        <g transform="translate(172.100034, 263.351438)">
            <g>
                <path d="M 17.078125 -17.703125 C 17.078125 -18.171875 16.910156 -18.570312 16.578125 -18.90625 C 16.253906 -19.25 15.867188 -19.429688 15.421875 -19.453125 L 9.90625 -19.453125 L 9.90625 -2.09375 C 9.925781 -1.582031 10.113281 -1.15625 10.46875 -0.8125 C 10.832031 -0.46875 11.265625 -0.296875 11.765625 -0.296875 L 12.140625 -0.296875 L 12.140625 0 L 5.796875 0 L 5.796875 -0.296875 L 6.171875 -0.296875 C 6.671875 -0.296875 7.097656 -0.46875 7.453125 -0.8125 C 7.816406 -1.15625 8.007812 -1.570312 8.03125 -2.0625 L 8.03125 -19.453125 L 2.515625 -19.453125 C 2.054688 -19.429688 1.664062 -19.25 1.34375 -18.90625 C 1.03125 -18.570312 0.875 -18.171875 0.875 -17.703125 L 0.875 -17.21875 L 0.578125 -17.1875 L 0.578125 -20.84375 C 0.867188 -20.726562 1.367188 -20.609375 2.078125 -20.484375 C 2.796875 -20.367188 3.457031 -20.3125 4.0625 -20.3125 L 13.859375 -20.3125 C 14.804688 -20.3125 15.59375 -20.382812 16.21875 -20.53125 C 16.84375 -20.675781 17.222656 -20.78125 17.359375 -20.84375 L 17.359375 -17.1875 L 17.078125 -17.21875 Z M 17.078125 -17.703125 "/>
            </g>
        </g>
    </g>
    <g fill="#000000" fill-opacity="1">
        <g transform="translate(190.014017, 263.351438)">
            <g>
                <path d="M 2.109375 -0.296875 C 2.617188 -0.296875 3.050781 -0.472656 3.40625 -0.828125 C 3.757812 -1.179688 3.945312 -1.609375 3.96875 -2.109375 L 3.96875 -18.203125 C 3.945312 -18.703125 3.757812 -19.125 3.40625 -19.46875 C 3.050781 -19.820312 2.617188 -20 2.109375 -20 L 1.734375 -20 L 1.734375 -20.28125 L 8.09375 -20.28125 L 8.09375 -20 L 7.703125 -20 C 7.203125 -20 6.773438 -19.820312 6.421875 -19.46875 C 6.066406 -19.125 5.878906 -18.703125 5.859375 -18.203125 L 5.859375 -2.109375 C 5.859375 -1.609375 6.039062 -1.179688 6.40625 -0.828125 C 6.769531 -0.472656 7.203125 -0.296875 7.703125 -0.296875 L 8.09375 -0.296875 L 8.09375 0 L 1.734375 0 L 1.734375 -0.296875 Z M 2.109375 -0.296875 "/>
            </g>
        </g>
    </g>
    <g fill="#000000" fill-opacity="1">
        <g transform="translate(199.811636, 263.351438)">
            <g>
                <path d="M 12.09375 0.40625 C 9.03125 0.382812 6.535156 -0.585938 4.609375 -2.515625 C 2.691406 -4.453125 1.734375 -7 1.734375 -10.15625 C 1.734375 -13.3125 2.691406 -15.851562 4.609375 -17.78125 C 6.535156 -19.71875 9.085938 -20.6875 12.265625 -20.6875 C 14.847656 -20.6875 17.132812 -20.03125 19.125 -18.71875 L 19.703125 -14.640625 L 19.453125 -14.640625 C 19.023438 -16.296875 18.160156 -17.570312 16.859375 -18.46875 C 15.566406 -19.375 14.035156 -19.828125 12.265625 -19.828125 C 9.734375 -19.828125 7.707031 -18.945312 6.1875 -17.1875 C 4.664062 -15.425781 3.90625 -13.097656 3.90625 -10.203125 C 3.90625 -7.304688 4.65625 -4.972656 6.15625 -3.203125 C 7.65625 -1.429688 9.632812 -0.519531 12.09375 -0.46875 C 14.25 -0.46875 16.050781 -1.054688 17.5 -2.234375 C 19.070312 -3.503906 20.019531 -5.582031 20.34375 -8.46875 L 20.578125 -8.46875 L 20.234375 -3.90625 C 18.472656 -1.03125 15.757812 0.40625 12.09375 0.40625 Z M 12.09375 0.40625 "/>
            </g>
        </g>
    </g>
    <g fill="#000000" fill-opacity="1">
        <g transform="translate(221.841779, 263.351438)">
            <g>
                <path d="M 7.703125 -0.296875 L 8.09375 -0.296875 L 8.09375 0 L 1.734375 0 L 1.734375 -0.296875 L 2.109375 -0.296875 C 2.617188 -0.296875 3.050781 -0.472656 3.40625 -0.828125 C 3.757812 -1.179688 3.945312 -1.609375 3.96875 -2.109375 L 3.96875 -18.203125 C 3.945312 -18.703125 3.757812 -19.125 3.40625 -19.46875 C 3.050781 -19.820312 2.617188 -20 2.109375 -20 L 1.734375 -20 L 1.734375 -20.28125 L 8.09375 -20.28125 L 8.09375 -20 L 7.703125 -20 C 7.203125 -20 6.773438 -19.820312 6.421875 -19.46875 C 6.066406 -19.125 5.878906 -18.703125 5.859375 -18.203125 L 5.859375 -2.109375 C 5.859375 -1.609375 6.039062 -1.179688 6.40625 -0.828125 C 6.769531 -0.472656 7.203125 -0.296875 7.703125 -0.296875 Z M 19.359375 0 L 18.109375 0 C 16.140625 0 14.691406 -0.550781 13.765625 -1.65625 L 6.78125 -10.09375 L 13.625 -18.671875 C 13.78125 -18.859375 13.859375 -19.03125 13.859375 -19.1875 C 13.859375 -19.34375 13.828125 -19.476562 13.765625 -19.59375 C 13.609375 -19.882812 13.328125 -20.03125 12.921875 -20.03125 L 12.640625 -20.03125 L 12.640625 -20.28125 L 18.75 -20.28125 L 18.75 -20.03125 L 18.640625 -20.03125 C 17.359375 -20.03125 16.3125 -19.578125 15.5 -18.671875 L 8.6875 -10.78125 L 16.609375 -1.484375 C 17.378906 -0.703125 18.296875 -0.304688 19.359375 -0.296875 Z M 19.359375 0 "/>
            </g>
        </g>
    </g>
    <g fill="#000000" fill-opacity="1">
        <g transform="translate(240.886261, 263.351438)">
            <g>
                <path d="M 2.109375 -0.296875 C 2.617188 -0.296875 3.050781 -0.472656 3.40625 -0.828125 C 3.757812 -1.179688 3.945312 -1.609375 3.96875 -2.109375 L 3.96875 -18.34375 C 3.914062 -18.8125 3.710938 -19.203125 3.359375 -19.515625 C 3.015625 -19.835938 2.597656 -20 2.109375 -20 L 1.765625 -20 L 1.734375 -20.28125 L 10.234375 -20.28125 C 10.828125 -20.28125 11.476562 -20.335938 12.1875 -20.453125 C 12.894531 -20.578125 13.394531 -20.695312 13.6875 -20.8125 L 13.6875 -17.15625 L 13.390625 -17.15625 L 13.390625 -17.6875 C 13.390625 -18.144531 13.226562 -18.535156 12.90625 -18.859375 C 12.59375 -19.191406 12.210938 -19.367188 11.765625 -19.390625 L 5.859375 -19.390625 L 5.859375 -10.4375 L 10.75 -10.4375 C 11.132812 -10.457031 11.460938 -10.601562 11.734375 -10.875 C 12.003906 -11.144531 12.140625 -11.484375 12.140625 -11.890625 L 12.140625 -12.296875 L 12.4375 -12.296875 L 12.4375 -7.703125 L 12.140625 -7.703125 L 12.140625 -8.140625 C 12.140625 -8.523438 12.007812 -8.851562 11.75 -9.125 C 11.488281 -9.394531 11.164062 -9.539062 10.78125 -9.5625 L 5.859375 -9.5625 L 5.859375 -0.90625 L 10 -0.90625 C 11.425781 -0.90625 12.515625 -1.222656 13.265625 -1.859375 C 14.023438 -2.492188 14.65625 -3.441406 15.15625 -4.703125 L 15.453125 -4.703125 L 13.765625 0 L 1.734375 0 L 1.734375 -0.296875 Z M 2.109375 -0.296875 "/>
            </g>
        </g>
    </g>
    <g fill="#000000" fill-opacity="1">
        <g transform="translate(257.611788, 263.351438)">
            <g>
                <path d="M 17.078125 -17.703125 C 17.078125 -18.171875 16.910156 -18.570312 16.578125 -18.90625 C 16.253906 -19.25 15.867188 -19.429688 15.421875 -19.453125 L 9.90625 -19.453125 L 9.90625 -2.09375 C 9.925781 -1.582031 10.113281 -1.15625 10.46875 -0.8125 C 10.832031 -0.46875 11.265625 -0.296875 11.765625 -0.296875 L 12.140625 -0.296875 L 12.140625 0 L 5.796875 0 L 5.796875 -0.296875 L 6.171875 -0.296875 C 6.671875 -0.296875 7.097656 -0.46875 7.453125 -0.8125 C 7.816406 -1.15625 8.007812 -1.570312 8.03125 -2.0625 L 8.03125 -19.453125 L 2.515625 -19.453125 C 2.054688 -19.429688 1.664062 -19.25 1.34375 -18.90625 C 1.03125 -18.570312 0.875 -18.171875 0.875 -17.703125 L 0.875 -17.21875 L 0.578125 -17.1875 L 0.578125 -20.84375 C 0.867188 -20.726562 1.367188 -20.609375 2.078125 -20.484375 C 2.796875 -20.367188 3.457031 -20.3125 4.0625 -20.3125 L 13.859375 -20.3125 C 14.804688 -20.3125 15.59375 -20.382812 16.21875 -20.53125 C 16.84375 -20.675781 17.222656 -20.78125 17.359375 -20.84375 L 17.359375 -17.1875 L 17.078125 -17.21875 Z M 17.078125 -17.703125 "/>
            </g>
        </g>
    </g>
    <g fill="#000000" fill-opacity="1">
        <g transform="translate(141.542325, 282.82255)">
            <g>
                <path d="M 10.703125 -6.984375 L 10.625 -6.984375 C 10.144531 -6.984375 9.820312 -6.75 9.65625 -6.28125 L 7.9375 -1.171875 C 7.757812 -0.671875 7.664062 -0.234375 7.65625 0.140625 L 7.546875 0.140625 L 5.34375 -5.5 L 3.796875 -1.171875 C 3.640625 -0.679688 3.554688 -0.242188 3.546875 0.140625 L 3.4375 0.140625 L 0.953125 -6.34375 C 0.765625 -6.769531 0.445312 -6.984375 0 -6.984375 L -0.09375 -6.984375 L -0.09375 -7.109375 L 2.34375 -7.109375 L 2.34375 -6.984375 L 2.25 -6.984375 C 2.101562 -6.984375 1.992188 -6.941406 1.921875 -6.859375 C 1.847656 -6.773438 1.8125 -6.6875 1.8125 -6.59375 C 1.8125 -6.507812 1.820312 -6.425781 1.84375 -6.34375 L 3.421875 -1.53125 L 5.421875 -7.296875 L 5.546875 -7.28125 L 7.65625 -1.890625 L 8.984375 -6.28125 C 9.023438 -6.382812 9.046875 -6.476562 9.046875 -6.5625 C 9.046875 -6.65625 9.015625 -6.75 8.953125 -6.84375 C 8.890625 -6.9375 8.785156 -6.984375 8.640625 -6.984375 L 8.546875 -6.984375 L 8.546875 -7.109375 L 10.703125 -7.109375 Z M 10.703125 -6.984375 "/>
            </g>
        </g>
    </g>
    <g fill="#000000" fill-opacity="1">
        <g transform="translate(152.193386, 282.82255)">
            <g>
                <path d="M 0.8125 -0.125 C 1 -0.125 1.160156 -0.179688 1.296875 -0.296875 C 1.429688 -0.421875 1.5 -0.570312 1.5 -0.75 L 1.5 -6.375 C 1.5 -6.539062 1.429688 -6.679688 1.296875 -6.796875 C 1.160156 -6.921875 1 -6.984375 0.8125 -6.984375 L 0.65625 -6.984375 L 0.65625 -7.109375 L 4.109375 -7.109375 C 4.429688 -7.109375 4.710938 -7.128906 4.953125 -7.171875 C 5.203125 -7.222656 5.363281 -7.265625 5.4375 -7.296875 L 5.4375 -5.953125 L 5.3125 -5.953125 L 5.3125 -6.140625 C 5.3125 -6.304688 5.253906 -6.445312 5.140625 -6.5625 C 5.023438 -6.675781 4.882812 -6.734375 4.71875 -6.734375 L 2.25 -6.734375 L 2.25 -3.734375 L 4.28125 -3.734375 C 4.4375 -3.734375 4.554688 -3.78125 4.640625 -3.875 C 4.722656 -3.96875 4.765625 -4.085938 4.765625 -4.234375 L 4.765625 -4.375 L 4.890625 -4.375 L 4.890625 -2.71875 L 4.765625 -2.71875 L 4.765625 -2.875 C 4.765625 -3.09375 4.679688 -3.242188 4.515625 -3.328125 C 4.453125 -3.347656 4.382812 -3.363281 4.3125 -3.375 L 2.25 -3.375 L 2.25 -0.359375 L 4.109375 -0.359375 C 4.472656 -0.359375 4.78125 -0.421875 5.03125 -0.546875 C 5.28125 -0.679688 5.46875 -0.832031 5.59375 -1 C 5.726562 -1.175781 5.863281 -1.40625 6 -1.6875 L 6.109375 -1.6875 L 5.453125 0 L 0.65625 0 L 0.65625 -0.125 Z M 0.8125 -0.125 "/>
            </g>
        </g>
    </g>
    <g fill="#000000" fill-opacity="1">
        <g transform="translate(158.662216, 282.82255)">
            <g>
                <path d="M 5.359375 -6.125 C 5.472656 -5.894531 5.53125 -5.617188 5.53125 -5.296875 C 5.53125 -4.972656 5.398438 -4.671875 5.140625 -4.390625 C 4.878906 -4.117188 4.578125 -3.941406 4.234375 -3.859375 C 4.804688 -3.796875 5.28125 -3.585938 5.65625 -3.234375 C 6.03125 -2.878906 6.21875 -2.488281 6.21875 -2.0625 C 6.21875 -1.644531 6.132812 -1.300781 5.96875 -1.03125 C 5.8125 -0.757812 5.597656 -0.554688 5.328125 -0.421875 C 4.816406 -0.140625 4.238281 0 3.59375 0 L 0.65625 0 L 0.65625 -0.125 L 0.796875 -0.125 C 0.992188 -0.125 1.160156 -0.179688 1.296875 -0.296875 C 1.429688 -0.421875 1.5 -0.578125 1.5 -0.765625 L 1.5 -6.34375 C 1.5 -6.601562 1.382812 -6.789062 1.15625 -6.90625 C 1.050781 -6.957031 0.929688 -6.984375 0.796875 -6.984375 L 0.65625 -6.984375 L 0.65625 -7.109375 L 3.0625 -7.109375 C 4.238281 -7.109375 5.003906 -6.78125 5.359375 -6.125 Z M 5.375 -1.984375 C 5.375 -3.160156 4.457031 -3.75 2.625 -3.75 L 2.625 -3.875 C 4.007812 -3.875 4.703125 -4.359375 4.703125 -5.328125 C 4.703125 -6.273438 4.15625 -6.75 3.0625 -6.75 L 2.25 -6.75 L 2.25 -0.359375 L 3.578125 -0.359375 C 4.109375 -0.359375 4.539062 -0.492188 4.875 -0.765625 C 5.207031 -1.035156 5.375 -1.441406 5.375 -1.984375 Z M 5.375 -1.984375 "/>
            </g>
        </g>
    </g>
    <g fill="#000000" fill-opacity="1">
        <g transform="translate(165.415385, 282.82255)">
            <g/>
        </g>
    </g>
    <g fill="#000000" fill-opacity="1">
        <g transform="translate(168.377299, 282.82255)">
            <g>
                <path d="M 5.359375 -6.125 C 5.472656 -5.894531 5.53125 -5.617188 5.53125 -5.296875 C 5.53125 -4.972656 5.398438 -4.671875 5.140625 -4.390625 C 4.878906 -4.117188 4.578125 -3.941406 4.234375 -3.859375 C 4.804688 -3.796875 5.28125 -3.585938 5.65625 -3.234375 C 6.03125 -2.878906 6.21875 -2.488281 6.21875 -2.0625 C 6.21875 -1.644531 6.132812 -1.300781 5.96875 -1.03125 C 5.8125 -0.757812 5.597656 -0.554688 5.328125 -0.421875 C 4.816406 -0.140625 4.238281 0 3.59375 0 L 0.65625 0 L 0.65625 -0.125 L 0.796875 -0.125 C 0.992188 -0.125 1.160156 -0.179688 1.296875 -0.296875 C 1.429688 -0.421875 1.5 -0.578125 1.5 -0.765625 L 1.5 -6.34375 C 1.5 -6.601562 1.382812 -6.789062 1.15625 -6.90625 C 1.050781 -6.957031 0.929688 -6.984375 0.796875 -6.984375 L 0.65625 -6.984375 L 0.65625 -7.109375 L 3.0625 -7.109375 C 4.238281 -7.109375 5.003906 -6.78125 5.359375 -6.125 Z M 5.375 -1.984375 C 5.375 -3.160156 4.457031 -3.75 2.625 -3.75 L 2.625 -3.875 C 4.007812 -3.875 4.703125 -4.359375 4.703125 -5.328125 C 4.703125 -6.273438 4.15625 -6.75 3.0625 -6.75 L 2.25 -6.75 L 2.25 -0.359375 L 3.578125 -0.359375 C 4.109375 -0.359375 4.539062 -0.492188 4.875 -0.765625 C 5.207031 -1.035156 5.375 -1.441406 5.375 -1.984375 Z M 5.375 -1.984375 "/>
            </g>
        </g>
    </g>
    <g fill="#000000" fill-opacity="1">
        <g transform="translate(175.130469, 282.82255)">
            <g>
                <path d="M 2.578125 -6.796875 C 3.191406 -7.109375 3.863281 -7.265625 4.59375 -7.265625 C 5.320312 -7.265625 5.988281 -7.109375 6.59375 -6.796875 C 7.207031 -6.492188 7.691406 -6.054688 8.046875 -5.484375 C 8.410156 -4.910156 8.59375 -4.265625 8.59375 -3.546875 C 8.59375 -2.828125 8.410156 -2.179688 8.046875 -1.609375 C 7.691406 -1.046875 7.207031 -0.609375 6.59375 -0.296875 C 5.988281 0.015625 5.363281 0.171875 4.71875 0.171875 C 4.082031 0.171875 3.519531 0.0820312 3.03125 -0.09375 C 2.539062 -0.28125 2.113281 -0.535156 1.75 -0.859375 C 1.394531 -1.179688 1.113281 -1.578125 0.90625 -2.046875 C 0.695312 -2.515625 0.59375 -3.0625 0.59375 -3.6875 C 0.59375 -4.3125 0.769531 -4.910156 1.125 -5.484375 C 1.488281 -6.054688 1.972656 -6.492188 2.578125 -6.796875 Z M 2.359375 -1.125 C 2.953125 -0.5 3.691406 -0.1875 4.578125 -0.1875 C 5.460938 -0.1875 6.203125 -0.5 6.796875 -1.125 C 7.398438 -1.757812 7.703125 -2.566406 7.703125 -3.546875 C 7.703125 -4.535156 7.398438 -5.34375 6.796875 -5.96875 C 6.203125 -6.601562 5.460938 -6.921875 4.578125 -6.921875 C 3.691406 -6.921875 2.953125 -6.601562 2.359375 -5.96875 C 1.765625 -5.34375 1.46875 -4.535156 1.46875 -3.546875 C 1.46875 -2.566406 1.765625 -1.757812 2.359375 -1.125 Z M 2.359375 -1.125 "/>
            </g>
        </g>
    </g>
    <g fill="#000000" fill-opacity="1">
        <g transform="translate(184.300573, 282.82255)">
            <g>
                <path d="M 2.578125 -6.796875 C 3.191406 -7.109375 3.863281 -7.265625 4.59375 -7.265625 C 5.320312 -7.265625 5.988281 -7.109375 6.59375 -6.796875 C 7.207031 -6.492188 7.691406 -6.054688 8.046875 -5.484375 C 8.410156 -4.910156 8.59375 -4.265625 8.59375 -3.546875 C 8.59375 -2.828125 8.410156 -2.179688 8.046875 -1.609375 C 7.691406 -1.046875 7.207031 -0.609375 6.59375 -0.296875 C 5.988281 0.015625 5.363281 0.171875 4.71875 0.171875 C 4.082031 0.171875 3.519531 0.0820312 3.03125 -0.09375 C 2.539062 -0.28125 2.113281 -0.535156 1.75 -0.859375 C 1.394531 -1.179688 1.113281 -1.578125 0.90625 -2.046875 C 0.695312 -2.515625 0.59375 -3.0625 0.59375 -3.6875 C 0.59375 -4.3125 0.769531 -4.910156 1.125 -5.484375 C 1.488281 -6.054688 1.972656 -6.492188 2.578125 -6.796875 Z M 2.359375 -1.125 C 2.953125 -0.5 3.691406 -0.1875 4.578125 -0.1875 C 5.460938 -0.1875 6.203125 -0.5 6.796875 -1.125 C 7.398438 -1.757812 7.703125 -2.566406 7.703125 -3.546875 C 7.703125 -4.535156 7.398438 -5.34375 6.796875 -5.96875 C 6.203125 -6.601562 5.460938 -6.921875 4.578125 -6.921875 C 3.691406 -6.921875 2.953125 -6.601562 2.359375 -5.96875 C 1.765625 -5.34375 1.46875 -4.535156 1.46875 -3.546875 C 1.46875 -2.566406 1.765625 -1.757812 2.359375 -1.125 Z M 2.359375 -1.125 "/>
            </g>
        </g>
    </g>
    <g fill="#000000" fill-opacity="1">
        <g transform="translate(193.470677, 282.82255)">
            <g>
                <path d="M 7.453125 0 L 7.015625 0 C 6.234375 0 5.648438 -0.222656 5.265625 -0.671875 L 2.671875 -3.53125 L 5.21875 -6.53125 C 5.300781 -6.632812 5.3125 -6.734375 5.25 -6.828125 C 5.1875 -6.929688 5.085938 -6.984375 4.953125 -6.984375 L 4.84375 -6.984375 L 4.84375 -7.109375 L 7.265625 -7.109375 L 7.265625 -6.984375 L 7.21875 -6.984375 C 6.726562 -6.984375 6.34375 -6.84375 6.0625 -6.5625 L 3.484375 -3.796875 L 6.421875 -0.609375 C 6.554688 -0.429688 6.695312 -0.304688 6.84375 -0.234375 C 7 -0.160156 7.203125 -0.125 7.453125 -0.125 Z M 2.953125 -0.125 L 3.078125 -0.125 L 3.078125 0 L 0.65625 0 L 0.65625 -0.125 L 0.796875 -0.125 C 0.984375 -0.125 1.144531 -0.1875 1.28125 -0.3125 C 1.414062 -0.4375 1.488281 -0.585938 1.5 -0.765625 L 1.5 -6.34375 C 1.488281 -6.519531 1.414062 -6.671875 1.28125 -6.796875 C 1.144531 -6.921875 0.984375 -6.984375 0.796875 -6.984375 L 0.65625 -6.984375 L 0.65625 -7.109375 L 3.078125 -7.109375 L 3.078125 -6.984375 L 2.9375 -6.984375 C 2.6875 -6.984375 2.488281 -6.882812 2.34375 -6.6875 C 2.28125 -6.582031 2.25 -6.472656 2.25 -6.359375 L 2.25 -0.75 C 2.25 -0.570312 2.316406 -0.421875 2.453125 -0.296875 C 2.597656 -0.179688 2.765625 -0.125 2.953125 -0.125 Z M 2.953125 -0.125 "/>
            </g>
        </g>
    </g>
    <g fill="#000000" fill-opacity="1">
        <g transform="translate(200.863629, 282.82255)">
            <g>
                <path d="M 0.8125 -0.125 C 1.03125 -0.125 1.21875 -0.1875 1.375 -0.3125 C 1.53125 -0.4375 1.609375 -0.585938 1.609375 -0.765625 L 1.609375 -6.34375 C 1.609375 -6.519531 1.53125 -6.671875 1.375 -6.796875 C 1.21875 -6.921875 1.03125 -6.984375 0.8125 -6.984375 L 0.65625 -6.984375 L 0.65625 -7.109375 L 3.328125 -7.109375 L 3.328125 -6.984375 L 3.171875 -6.984375 C 2.960938 -6.984375 2.78125 -6.921875 2.625 -6.796875 C 2.46875 -6.679688 2.382812 -6.539062 2.375 -6.375 L 2.375 -0.75 C 2.375 -0.570312 2.453125 -0.421875 2.609375 -0.296875 C 2.773438 -0.179688 2.960938 -0.125 3.171875 -0.125 L 3.328125 -0.125 L 3.34375 0 L 0.65625 0 L 0.65625 -0.125 Z M 0.8125 -0.125 "/>
            </g>
        </g>
    </g>
    <g fill="#000000" fill-opacity="1">
        <g transform="translate(204.844445, 282.82255)">
            <g>
                <path d="M 8.609375 -6.984375 C 8.429688 -6.984375 8.28125 -6.925781 8.15625 -6.8125 C 8.03125 -6.695312 7.960938 -6.554688 7.953125 -6.390625 L 7.953125 -1.34375 C 7.953125 -0.882812 7.984375 -0.453125 8.046875 -0.046875 L 8.0625 0.171875 L 7.953125 0.171875 L 1.796875 -5.671875 L 1.796875 -0.734375 C 1.796875 -0.554688 1.859375 -0.410156 1.984375 -0.296875 C 2.109375 -0.179688 2.265625 -0.125 2.453125 -0.125 L 2.65625 -0.125 L 2.65625 0 L 0.421875 0 L 0.421875 -0.125 L 0.609375 -0.125 C 0.796875 -0.125 0.953125 -0.179688 1.078125 -0.296875 C 1.203125 -0.410156 1.265625 -0.554688 1.265625 -0.734375 L 1.265625 -5.796875 C 1.265625 -6.285156 1.238281 -6.71875 1.1875 -7.09375 L 1.15625 -7.28125 L 1.296875 -7.265625 L 7.4375 -1.484375 L 7.4375 -6.390625 C 7.425781 -6.554688 7.351562 -6.695312 7.21875 -6.8125 C 7.09375 -6.925781 6.945312 -6.984375 6.78125 -6.984375 L 6.578125 -6.984375 L 6.578125 -7.109375 L 8.8125 -7.109375 L 8.8125 -6.984375 Z M 8.609375 -6.984375 "/>
            </g>
        </g>
    </g>
    <g fill="#000000" fill-opacity="1">
        <g transform="translate(214.073784, 282.82255)">
            <g>
                <path d="M 4.484375 0.171875 C 3.304688 0.160156 2.363281 -0.175781 1.65625 -0.84375 C 0.945312 -1.507812 0.59375 -2.410156 0.59375 -3.546875 C 0.59375 -4.691406 0.945312 -5.597656 1.65625 -6.265625 C 2.363281 -6.929688 3.273438 -7.265625 4.390625 -7.265625 C 5.503906 -7.265625 6.453125 -7.03125 7.234375 -6.5625 L 7.5 -4.875 L 7.390625 -4.875 C 7.222656 -5.570312 6.898438 -6.085938 6.421875 -6.421875 C 5.941406 -6.753906 5.265625 -6.921875 4.390625 -6.921875 C 3.523438 -6.921875 2.816406 -6.617188 2.265625 -6.015625 C 1.710938 -5.410156 1.4375 -4.585938 1.4375 -3.546875 C 1.4375 -2.515625 1.710938 -1.695312 2.265625 -1.09375 C 2.828125 -0.488281 3.59375 -0.1875 4.5625 -0.1875 C 5.539062 -0.1875 6.378906 -0.53125 7.078125 -1.21875 L 7.09375 -2.796875 C 7.101562 -2.941406 7.054688 -3.050781 6.953125 -3.125 C 6.859375 -3.207031 6.722656 -3.25 6.546875 -3.25 L 6.390625 -3.25 L 6.390625 -3.375 L 8.546875 -3.375 L 8.546875 -3.25 L 8.390625 -3.25 C 8.035156 -3.25 7.859375 -3.09375 7.859375 -2.78125 L 7.859375 -1.359375 C 7.523438 -0.953125 7.066406 -0.59375 6.484375 -0.28125 C 5.898438 0.0195312 5.234375 0.171875 4.484375 0.171875 Z M 4.484375 0.171875 "/>
            </g>
        </g>
    </g>
</svg>